<?xml version="1.0" encoding="UTF-8" standalone="no"?>
<!DOCTYPE svg PUBLIC "-//W3C//DTD SVG 1.1//EN"
 "http://www.w3.org/Graphics/SVG/1.1/DTD/svg11.dtd">
<!-- Generated by graphviz version 5.0.0 (0)
 -->
<!-- Title: test Pages: 1 -->
<svg width="960pt" height="332pt"
 viewBox="0.00 0.00 959.69 332.00" xmlns="http://www.w3.org/2000/svg" xmlns:xlink="http://www.w3.org/1999/xlink">
<g id="graph0" class="graph" transform="scale(1 1) rotate(0) translate(4 328)">
<title>test</title>
<polygon fill="white" stroke="transparent" points="-4,4 -4,-328 955.69,-328 955.69,4 -4,4"/>
<!-- ProgramContext_0 -->
<g id="node1" class="node">
<title>ProgramContext_0</title>
<ellipse fill="none" stroke="black" cx="506.69" cy="-306" rx="87.99" ry="18"/>
<text text-anchor="middle" x="506.69" y="-302.3" font-family="Times,serif" font-size="14.00">ProgramContext</text>
</g>
<!-- OperationDeclarationContext_0 -->
<g id="node2" class="node">
<title>OperationDeclarationContext_0</title>
<ellipse fill="none" stroke="black" cx="506.69" cy="-234" rx="147.57" ry="18"/>
<text text-anchor="middle" x="506.69" y="-230.3" font-family="Times,serif" font-size="14.00">OperationDeclarationContext</text>
</g>
<!-- ProgramContext_0&#45;&gt;OperationDeclarationContext_0 -->
<g id="edge1" class="edge">
<title>ProgramContext_0&#45;&gt;OperationDeclarationContext_0</title>
<path fill="none" stroke="black" d="M506.69,-287.7C506.69,-279.98 506.69,-270.71 506.69,-262.11"/>
<polygon fill="black" stroke="black" points="510.19,-262.1 506.69,-252.1 503.19,-262.1 510.19,-262.1"/>
</g>
<!-- DatatypeContext_0 -->
<g id="node3" class="node">
<title>DatatypeContext_0</title>
<ellipse fill="none" stroke="black" cx="89.69" cy="-162" rx="89.88" ry="18"/>
<text text-anchor="middle" x="89.69" y="-158.3" font-family="Times,serif" font-size="14.00">DatatypeContext</text>
</g>
<!-- OperationDeclarationContext_0&#45;&gt;DatatypeContext_0 -->
<g id="edge2" class="edge">
<title>OperationDeclarationContext_0&#45;&gt;DatatypeContext_0</title>
<path fill="none" stroke="black" d="M422.98,-219.16C358.84,-208.53 268.16,-193.45 188.69,-180 181.14,-178.72 173.26,-177.38 165.39,-176.04"/>
<polygon fill="black" stroke="black" points="165.9,-172.57 155.45,-174.34 164.72,-179.47 165.9,-172.57"/>
</g>
<!-- TerminalNodeImpl_1 -->
<g id="node5" class="node">
<title>TerminalNodeImpl_1</title>
<ellipse fill="none" stroke="black" cx="224.69" cy="-162" rx="27" ry="18"/>
<text text-anchor="middle" x="224.69" y="-158.3" font-family="Times,serif" font-size="14.00">)</text>
</g>
<!-- OperationDeclarationContext_0&#45;&gt;TerminalNodeImpl_1 -->
<g id="edge4" class="edge">
<title>OperationDeclarationContext_0&#45;&gt;TerminalNodeImpl_1</title>
<path fill="none" stroke="black" d="M420.29,-219.39C372.52,-210.62 312.52,-197.56 260.69,-180 258.78,-179.35 256.83,-178.63 254.88,-177.86"/>
<polygon fill="black" stroke="black" points="255.86,-174.47 245.3,-173.72 253.09,-180.9 255.86,-174.47"/>
</g>
<!-- ParameterContext_0 -->
<g id="node6" class="node">
<title>ParameterContext_0</title>
<ellipse fill="none" stroke="black" cx="365.69" cy="-162" rx="96.38" ry="18"/>
<text text-anchor="middle" x="365.69" y="-158.3" font-family="Times,serif" font-size="14.00">ParameterContext</text>
</g>
<!-- OperationDeclarationContext_0&#45;&gt;ParameterContext_0 -->
<g id="edge5" class="edge">
<title>OperationDeclarationContext_0&#45;&gt;ParameterContext_0</title>
<path fill="none" stroke="black" d="M473.28,-216.41C453.41,-206.55 428.06,-193.96 406.96,-183.49"/>
<polygon fill="black" stroke="black" points="408.41,-180.3 397.9,-178.99 405.3,-186.57 408.41,-180.3"/>
</g>
<!-- TerminalNodeImpl_4 -->
<g id="node10" class="node">
<title>TerminalNodeImpl_4</title>
<ellipse fill="none" stroke="black" cx="506.69" cy="-162" rx="27" ry="18"/>
<text text-anchor="middle" x="506.69" y="-158.3" font-family="Times,serif" font-size="14.00">(</text>
</g>
<!-- OperationDeclarationContext_0&#45;&gt;TerminalNodeImpl_4 -->
<g id="edge9" class="edge">
<title>OperationDeclarationContext_0&#45;&gt;TerminalNodeImpl_4</title>
<path fill="none" stroke="black" d="M506.69,-215.7C506.69,-207.98 506.69,-198.71 506.69,-190.11"/>
<polygon fill="black" stroke="black" points="510.19,-190.1 506.69,-180.1 503.19,-190.1 510.19,-190.1"/>
</g>
<!-- TerminalNodeImpl_5 -->
<g id="node11" class="node">
<title>TerminalNodeImpl_5</title>
<ellipse fill="none" stroke="black" cx="578.69" cy="-162" rx="27" ry="18"/>
<text text-anchor="middle" x="578.69" y="-158.3" font-family="Times,serif" font-size="14.00">}</text>
</g>
<!-- OperationDeclarationContext_0&#45;&gt;TerminalNodeImpl_5 -->
<g id="edge10" class="edge">
<title>OperationDeclarationContext_0&#45;&gt;TerminalNodeImpl_5</title>
<path fill="none" stroke="black" d="M524.12,-216.05C533.9,-206.55 546.2,-194.59 556.64,-184.44"/>
<polygon fill="black" stroke="black" points="559.13,-186.9 563.86,-177.42 554.25,-181.89 559.13,-186.9"/>
</g>
<!-- ReturnStatementContext_0 -->
<g id="node12" class="node">
<title>ReturnStatementContext_0</title>
<ellipse fill="none" stroke="black" cx="751.69" cy="-162" rx="128.08" ry="18"/>
<text text-anchor="middle" x="751.69" y="-158.3" font-family="Times,serif" font-size="14.00">ReturnStatementContext</text>
</g>
<!-- OperationDeclarationContext_0&#45;&gt;ReturnStatementContext_0 -->
<g id="edge11" class="edge">
<title>OperationDeclarationContext_0&#45;&gt;ReturnStatementContext_0</title>
<path fill="none" stroke="black" d="M561.67,-217.29C599.13,-206.59 648.84,-192.39 688.02,-181.19"/>
<polygon fill="black" stroke="black" points="689.08,-184.53 697.74,-178.42 687.16,-177.8 689.08,-184.53"/>
</g>
<!-- TerminalNodeImpl_8 -->
<g id="node15" class="node">
<title>TerminalNodeImpl_8</title>
<ellipse fill="none" stroke="black" cx="924.69" cy="-162" rx="27" ry="18"/>
<text text-anchor="middle" x="924.69" y="-158.3" font-family="Times,serif" font-size="14.00">{</text>
</g>
<!-- OperationDeclarationContext_0&#45;&gt;TerminalNodeImpl_8 -->
<g id="edge14" class="edge">
<title>OperationDeclarationContext_0&#45;&gt;TerminalNodeImpl_8</title>
<path fill="none" stroke="black" d="M634.78,-224.98C709.94,-217.87 806.08,-204.61 888.69,-180 890.63,-179.42 892.59,-178.76 894.55,-178.03"/>
<polygon fill="black" stroke="black" points="896.31,-181.09 904.18,-173.99 893.6,-174.63 896.31,-181.09"/>
</g>
<!-- TerminalNodeImpl_0 -->
<g id="node4" class="node">
<title>TerminalNodeImpl_0</title>
<ellipse fill="none" stroke="black" cx="89.69" cy="-90" rx="39.79" ry="18"/>
<text text-anchor="middle" x="89.69" y="-86.3" font-family="Times,serif" font-size="14.00">عملية_١</text>
</g>
<!-- DatatypeContext_0&#45;&gt;TerminalNodeImpl_0 -->
<g id="edge3" class="edge">
<title>DatatypeContext_0&#45;&gt;TerminalNodeImpl_0</title>
<path fill="none" stroke="black" d="M89.69,-143.7C89.69,-135.98 89.69,-126.71 89.69,-118.11"/>
<polygon fill="black" stroke="black" points="93.19,-118.1 89.69,-108.1 86.19,-118.1 93.19,-118.1"/>
</g>
<!-- DatatypeContext_1 -->
<g id="node7" class="node">
<title>DatatypeContext_1</title>
<ellipse fill="none" stroke="black" cx="301.69" cy="-90" rx="89.88" ry="18"/>
<text text-anchor="middle" x="301.69" y="-86.3" font-family="Times,serif" font-size="14.00">DatatypeContext</text>
</g>
<!-- ParameterContext_0&#45;&gt;DatatypeContext_1 -->
<g id="edge6" class="edge">
<title>ParameterContext_0&#45;&gt;DatatypeContext_1</title>
<path fill="none" stroke="black" d="M350.2,-144.05C342.34,-135.46 332.65,-124.86 324,-115.4"/>
<polygon fill="black" stroke="black" points="326.37,-112.81 317.04,-107.79 321.21,-117.53 326.37,-112.81"/>
</g>
<!-- TerminalNodeImpl_3 -->
<g id="node9" class="node">
<title>TerminalNodeImpl_3</title>
<ellipse fill="none" stroke="black" cx="436.69" cy="-90" rx="27" ry="18"/>
<text text-anchor="middle" x="436.69" y="-86.3" font-family="Times,serif" font-size="14.00">م</text>
</g>
<!-- ParameterContext_0&#45;&gt;TerminalNodeImpl_3 -->
<g id="edge8" class="edge">
<title>ParameterContext_0&#45;&gt;TerminalNodeImpl_3</title>
<path fill="none" stroke="black" d="M382.88,-144.05C392.43,-134.64 404.41,-122.82 414.65,-112.74"/>
<polygon fill="black" stroke="black" points="417.4,-114.94 422.06,-105.42 412.48,-109.95 417.4,-114.94"/>
</g>
<!-- TerminalNodeImpl_2 -->
<g id="node8" class="node">
<title>TerminalNodeImpl_2</title>
<ellipse fill="none" stroke="black" cx="301.69" cy="-18" rx="27" ry="18"/>
<text text-anchor="middle" x="301.69" y="-14.3" font-family="Times,serif" font-size="14.00">ص٢</text>
</g>
<!-- DatatypeContext_1&#45;&gt;TerminalNodeImpl_2 -->
<g id="edge7" class="edge">
<title>DatatypeContext_1&#45;&gt;TerminalNodeImpl_2</title>
<path fill="none" stroke="black" d="M301.69,-71.7C301.69,-63.98 301.69,-54.71 301.69,-46.11"/>
<polygon fill="black" stroke="black" points="305.19,-46.1 301.69,-36.1 298.19,-46.1 305.19,-46.1"/>
</g>
<!-- TerminalNodeImpl_6 -->
<g id="node13" class="node">
<title>TerminalNodeImpl_6</title>
<ellipse fill="none" stroke="black" cx="712.69" cy="-90" rx="32.49" ry="18"/>
<text text-anchor="middle" x="712.69" y="-86.3" font-family="Times,serif" font-size="14.00">رجوع</text>
</g>
<!-- ReturnStatementContext_0&#45;&gt;TerminalNodeImpl_6 -->
<g id="edge12" class="edge">
<title>ReturnStatementContext_0&#45;&gt;TerminalNodeImpl_6</title>
<path fill="none" stroke="black" d="M742.05,-143.7C737.5,-135.52 731.97,-125.6 726.95,-116.58"/>
<polygon fill="black" stroke="black" points="729.88,-114.65 721.95,-107.62 723.76,-118.06 729.88,-114.65"/>
</g>
<!-- TerminalNodeImpl_7 -->
<g id="node14" class="node">
<title>TerminalNodeImpl_7</title>
<ellipse fill="none" stroke="black" cx="789.69" cy="-90" rx="27" ry="18"/>
<text text-anchor="middle" x="789.69" y="-86.3" font-family="Times,serif" font-size="14.00">؛</text>
</g>
<!-- ReturnStatementContext_0&#45;&gt;TerminalNodeImpl_7 -->
<g id="edge13" class="edge">
<title>ReturnStatementContext_0&#45;&gt;TerminalNodeImpl_7</title>
<path fill="none" stroke="black" d="M761.09,-143.7C765.59,-135.4 771.07,-125.31 776.02,-116.19"/>
<polygon fill="black" stroke="black" points="779.23,-117.6 780.93,-107.14 773.08,-114.26 779.23,-117.6"/>
</g>
</g>
</svg>
